<svg width="48" height="48" viewBox="0 0 48 48" fill="none" xmlns="http://www.w3.org/2000/svg">
  <rect width="48" height="48" rx="12" fill="url(#ai-feedback-gradient)" />
  <path d="M24 8C32.8366 8 40 15.1634 40 24C40 32.8366 32.8366 40 24 40C15.1634 40 8 32.8366 8 24C8 15.1634 15.1634 8 24 8Z" fill="white" />
  <path d="M24 16C28.4183 16 32 19.5817 32 24C32 28.4183 28.4183 32 24 32C19.5817 32 16 28.4183 16 24C16 19.5817 19.5817 16 24 16Z" fill="url(#ai-feedback-gradient)" />
  <path d="M20 22L22 24L28 18" stroke="white" stroke-width="2" stroke-linecap="round" stroke-linejoin="round" />
  <defs>
    <linearGradient id="ai-feedback-gradient" x1="0" y1="0" x2="48" y2="48">
      <stop offset="0%" stop-color="#6366F1" />
      <stop offset="100%" stop-color="#4338CA" />
    </linearGradient>
  </defs>
</svg>
